<?xml version="1.0" encoding="UTF-8"?>
<svg id="Layer_2" data-name="Layer 2" xmlns="http://www.w3.org/2000/svg" xmlns:xlink="http://www.w3.org/1999/xlink" viewBox="0 0 1324.44 303.07">
  <defs>
    <style>
      .cls-1, .cls-2, .cls-3 {
        stroke-width: 0px;
      }

      .cls-2 {
        fill: #fff;
      }

      .cls-3 {
        fill: url(#_Безымянный_градиент_6);
      }
    </style>
    <linearGradient id="_Безымянный_градиент_6" data-name="Безымянный градиент 6" x1="0" y1="151.54" x2="378.13" y2="151.54" gradientUnits="userSpaceOnUse">
      <stop offset="0" stop-color="#c451af"/>
      <stop offset="1" stop-color="#7e00f7"/>
    </linearGradient>
  </defs>
  <g id="Layer_1-2" data-name="Layer 1">
    <g>
      <g>
        <path class="cls-1" d="m474.58,206.8c6.44,23.31,23.93,34.96,52.45,34.96,18.35,0,32.23-6.2,41.66-18.6l38.69,22.32c-18.35,26.54-45.38,39.8-81.09,39.8-30.75,0-55.42-9.3-74.02-27.9-18.6-18.6-27.9-42.03-27.9-70.3s9.17-51.39,27.53-70.12c18.35-18.72,41.9-28.08,70.67-28.08,27.28,0,49.78,9.43,67.51,28.27,17.73,18.85,26.59,42.16,26.59,69.93,0,6.2-.62,12.77-1.86,19.71h-140.23Zm-.74-37.2h94.85c-2.73-12.65-8.37-22.07-16.92-28.27-8.56-6.2-18.29-9.3-29.2-9.3-12.9,0-23.56,3.29-31.99,9.86-8.43,6.57-14.01,15.81-16.74,27.71Z"/>
        <path class="cls-1" d="m696.15,235.06h82.58v45.01h-146.66v-31.94l78.42-109.03h-74.77v-45.01h139.36v31.89l-78.93,109.08Z"/>
        <path class="cls-1" d="m908.45,89.25c26.04,0,48.23,9.48,66.58,28.46,18.35,18.97,27.53,42.1,27.53,69.37s-9.18,50.4-27.53,69.37c-18.35,18.97-40.54,28.46-66.58,28.46-30.75,0-54.18-12.28-70.3-36.83v31.99h-32.36V19.69h32.36v106.38c16.12-24.55,39.55-36.82,70.3-36.82Zm-4.09,164.41c18.6,0,34.22-6.38,46.87-19.16,12.65-12.77,18.97-28.58,18.97-47.42s-6.33-34.65-18.97-47.43c-12.65-12.77-28.27-19.15-46.87-19.15s-34.59,6.38-47.24,19.15c-12.65,12.78-18.97,28.58-18.97,47.43s6.33,34.65,18.97,47.42c12.65,12.78,28.39,19.16,47.24,19.16Z"/>
        <path class="cls-1" d="m1190.77,256.64c-19.1,18.85-42.28,28.27-69.56,28.27s-50.4-9.42-69.37-28.27c-18.97-18.84-28.46-42.03-28.46-69.56s9.49-50.71,28.46-69.56c18.97-18.84,42.09-28.27,69.37-28.27s50.46,9.43,69.56,28.27c19.09,18.85,28.64,42.03,28.64,69.56s-9.55,50.71-28.64,69.56Zm-69.56-3.35c18.6,0,34.22-6.33,46.87-18.97,12.65-12.65,18.97-28.39,18.97-47.24s-6.32-34.6-18.97-47.24c-12.65-12.65-28.27-18.97-46.87-18.97s-33.85,6.32-46.5,18.97c-12.65,12.65-18.97,28.4-18.97,47.24s6.32,34.59,18.97,47.24c12.65,12.65,28.14,18.97,46.5,18.97Z"/>
        <polygon class="cls-1" points="1242.59 125.33 1242.59 51.68 1274.96 42 1274.96 94.1 1324.44 94.1 1324.44 125.33 1242.59 125.33"/>
        <path class="cls-1" d="m1242.59,226.15v-100.82l32.37,13.93v86.89c0,9.14,1.78,15.67,5.39,19.5,3.6,3.87,9.11,5.84,16.54,5.96,7.44.11,16.62-.04,27.55-.57v29.03c-28.27,3.72-48.99,1.44-62.12-6.87-13.17-8.31-19.73-24.02-19.73-47.05Z"/>
      </g>
      <g>
        <g>
          <path class="cls-2" d="m184.43,174.68c0-15.71,12.74-28.42,28.42-28.42s28.42,12.72,28.42,28.42-12.72,28.4-28.42,28.4-28.42-12.72-28.42-28.4Z"/>
          <path class="cls-2" d="m90.37,174.68c0-15.71,12.74-28.42,28.42-28.42s28.42,12.72,28.42,28.42-12.72,28.4-28.42,28.4-28.42-12.72-28.42-28.4Z"/>
          <path class="cls-2" d="m115.08,303.07h26.54l7.64-6.53,14.79-12.64h52.69c35.08,0,66.52-15.78,87.62-40.6l37.6-37.08,3.17-3.12c20.38-20.76,32.98-49.23,32.98-80.57v-7.45c0-63.45-51.63-115.08-115.08-115.08h-29.39l-7.87,7.42-12.52,11.78h-51.9c-32.33,0-61.57,13.38-82.45,34.91l-.82.82-42.03,42.06-.27.27C13.75,118.2,0,147.81,0,180.57v7.45c0,63.45,51.63,115.06,115.08,115.06ZM27.21,180.57c0-48.54,39.33-87.87,87.87-87.87h62.71l20.38-19.2h18.58c48.54,0,87.87,39.33,87.87,87.87v7.45c0,48.51-39.33,87.87-87.87,87.87h-62.74l-22.44,19.17h-16.5c-48.54,0-87.87-39.33-87.87-87.85v-7.45Z"/>
        </g>
        <g>
          <line class="cls-3" x1="302.45" y1="245.2" x2="304.38" y2="243.29"/>
          <g>
            <path class="cls-3" d="m184.43,174.68c0-15.71,12.74-28.42,28.42-28.42s28.42,12.72,28.42,28.42-12.72,28.4-28.42,28.4-28.42-12.72-28.42-28.4Z"/>
            <path class="cls-3" d="m184.43,174.68c0-15.71,12.74-28.42,28.42-28.42s28.42,12.72,28.42,28.42-12.72,28.4-28.42,28.4-28.42-12.72-28.42-28.4Z"/>
          </g>
          <g>
            <path class="cls-3" d="m90.37,174.68c0-15.71,12.74-28.42,28.42-28.42s28.42,12.72,28.42,28.42-12.72,28.4-28.42,28.4-28.42-12.72-28.42-28.4Z"/>
            <path class="cls-3" d="m90.37,174.68c0-15.71,12.74-28.42,28.42-28.42s28.42,12.72,28.42,28.42-12.72,28.4-28.42,28.4-28.42-12.72-28.42-28.4Z"/>
          </g>
          <g>
            <path class="cls-3" d="m115.08,303.07h26.54l7.64-6.53,14.79-12.64h52.69c35.08,0,66.52-15.78,87.62-40.6l37.6-37.08,3.17-3.12c20.38-20.76,32.98-49.23,32.98-80.57v-7.45c0-63.45-51.63-115.08-115.08-115.08h-29.39l-7.87,7.42-12.52,11.78h-51.9c-32.33,0-61.57,13.38-82.45,34.91l-.82.82-42.03,42.06-.27.27C13.75,118.2,0,147.81,0,180.57v7.45c0,63.45,51.63,115.06,115.08,115.06ZM27.21,180.57c0-48.54,39.33-87.87,87.87-87.87h62.71l20.38-19.2h18.58c48.54,0,87.87,39.33,87.87,87.87v7.45c0,48.51-39.33,87.87-87.87,87.87h-62.74l-22.44,19.17h-16.5c-48.54,0-87.87-39.33-87.87-87.85v-7.45Z"/>
            <path class="cls-3" d="m115.08,303.07h26.54l7.64-6.53,14.79-12.64h52.69c35.08,0,66.52-15.78,87.62-40.6l37.6-37.08,3.17-3.12c20.38-20.76,32.98-49.23,32.98-80.57v-7.45c0-63.45-51.63-115.08-115.08-115.08h-29.39l-7.87,7.42-12.52,11.78h-51.9c-32.33,0-61.57,13.38-82.45,34.91l-.82.82-42.03,42.06-.27.27C13.75,118.2,0,147.81,0,180.57v7.45c0,63.45,51.63,115.06,115.08,115.06ZM27.21,180.57c0-48.54,39.33-87.87,87.87-87.87h62.71l20.38-19.2h18.58c48.54,0,87.87,39.33,87.87,87.87v7.45c0,48.51-39.33,87.87-87.87,87.87h-62.74l-22.44,19.17h-16.5c-48.54,0-87.87-39.33-87.87-87.85v-7.45Z"/>
          </g>
        </g>
      </g>
    </g>
  </g>
</svg>